# xmcd
#
# Track frame offsets:
#	150
#	18982
#	35271
#	50303
#	69621
#	85573
#	103036
#	121976
#	142738
#	158590
#	171171
#	189598
#
# Disc length: 2822 seconds
#
# Revision: 0
# Processed by: cddbd v1.5.1PL2 Copyright (c) Steve Scherf et al.
# Submitted via: EasyCDDAExtractor 4.6.9.1
#
DISCID=8d0b040c
DTITLE=Wynonna Judd - New Day Dawning - CD 1
DYEAR=2000
DGENRE=Country
TTITLE0=Going Nowhere
TTITLE1=New Day Dawning
TTITLE2=Can't Nobody Love You (Like I Do)
TTITLE3=Chain Reaction
TTITLE4=Help Me
TTITLE5=I've Got Your Love
TTITLE6=Tuff Enuff
TTITLE7=Who Am I Trying To Fool
TTITLE8=Lost Without You
TTITLE9=He Rocks
TTITLE10=Learning To Live With Love Again
TTITLE11=I Can't Wait To Meet You
EXTD=
EXTT0=
EXTT1=
EXTT2=
EXTT3=
EXTT4=
EXTT5=
EXTT6=
EXTT7=
EXTT8=
EXTT9=
EXTT10=
EXTT11=
PLAYORDER=
